<?xml version="1.0" standalone="no"?>
<!DOCTYPE svg PUBLIC "-//W3C//DTD SVG 20010904//EN"
 "http://www.w3.org/TR/2001/REC-SVG-20010904/DTD/svg10.dtd">
<svg version="1.0" xmlns="http://www.w3.org/2000/svg"
 width="280.000000pt" height="280.000000pt" viewBox="0 0 280.000000 280.000000"
 preserveAspectRatio="xMidYMid meet">

<g transform="translate(0.000000,280.000000) scale(0.100000,-0.100000)"
fill="#000000" stroke="none">
<path d="M1878 2557 c-56 -24 -106 -84 -118 -140 -17 -76 0 -154 43 -194 77
-74 163 -92 245 -51 54 28 85 66 108 137 16 50 16 56 0 107 -20 63 -67 121
-113 140 -40 17 -128 17 -165 1z m158 -29 c107 -53 138 -197 61 -285 -80 -91
-221 -84 -286 14 -53 79 -53 139 -1 210 35 47 99 83 149 83 19 0 53 -10 77
-22z"/>
<path d="M1948 2453 c6 -2 18 -2 25 0 6 3 1 5 -13 5 -14 0 -19 -2 -12 -5z"/>
<path d="M1894 2428 l-19 -23 23 19 c12 11 22 21 22 23 0 8 -8 2 -26 -19z"/>
<path d="M1991 2447 c2 -1 14 -11 27 -21 12 -11 22 -16 22 -13 0 10 -31 37
-42 37 -6 0 -9 -1 -7 -3z"/>
<path d="M1917 2402 c-37 -40 -9 -102 46 -102 29 0 57 32 57 66 0 47 -71 72
-103 36z"/>
<path d="M2043 2360 c0 -25 2 -35 4 -22 2 12 2 32 0 45 -2 12 -4 2 -4 -23z"/>
<path d="M1889 2296 c7 -8 25 -19 41 -26 32 -13 78 -2 101 26 6 7 -7 3 -30 -9
l-41 -22 -41 22 c-23 12 -36 16 -30 9z"/>
<path d="M2503 2560 c-38 -9 -89 -50 -123 -99 -20 -30 -24 -48 -24 -107 0 -63
3 -77 29 -114 38 -55 116 -100 173 -100 72 0 140 44 184 118 37 63 37 122 1
190 -35 63 -77 98 -134 111 -50 12 -61 12 -106 1z m122 -127 c56 -61 42 -132
-34 -172 -54 -29 -131 28 -131 97 0 54 47 102 100 102 30 0 45 -7 65 -27z"/>
<path d="M2523 2444 c-7 -3 -22 -21 -33 -40 -54 -86 54 -181 125 -109 67 66
-6 183 -92 149z m86 -40 c21 -19 17 -85 -5 -101 -25 -18 -69 -16 -89 3 -26 26
-16 95 15 111 27 14 57 9 79 -13z"/>
<path d="M2550 2360 c0 -13 5 -20 13 -17 6 2 12 10 12 17 0 7 -6 15 -12 18 -8
2 -13 -5 -13 -18z"/>
<path d="M1823 2052 c-56 -23 -101 -68 -113 -113 -7 -24 -9 -312 -8 -796 l3
-759 27 -42 c41 -61 96 -82 220 -82 106 0 160 17 200 64 49 55 48 35 47 838
-1 414 -4 763 -7 774 -13 41 -57 87 -107 110 -63 30 -196 33 -262 6z m280 -37
c15 -11 39 -41 52 -67 l25 -47 0 -738 c0 -699 -1 -740 -19 -779 -10 -23 -34
-53 -53 -68 -33 -25 -40 -26 -157 -26 -141 0 -162 8 -205 73 l-26 41 0 756 0
755 23 40 c12 22 38 50 57 63 33 22 43 23 155 20 101 -2 124 -6 148 -23z"/>
<path d="M1910 1924 c-63 -25 -67 -140 -6 -164 29 -11 36 -67 36 -296 l0 -163
-29 -15 c-16 -9 -31 -23 -35 -32 -4 -10 4 -7 25 10 41 35 64 33 105 -8 19 -19
34 -32 34 -29 0 16 -25 45 -50 58 l-30 16 0 223 0 224 30 12 c37 15 50 37 50
83 0 48 -27 77 -75 82 -22 3 -47 2 -55 -1z"/>
<path d="M1862 1205 c0 -16 2 -22 5 -12 2 9 2 23 0 30 -3 6 -5 -1 -5 -18z"/>
<path d="M2012 1145 c-19 -22 -62 -29 -96 -17 -28 10 -29 10 -12 -3 11 -8 23
-15 28 -15 4 0 8 -114 8 -253 l0 -253 -31 -18 c-17 -10 -28 -20 -25 -24 3 -3
14 2 24 11 10 10 31 17 47 17 16 0 37 -7 47 -17 10 -9 21 -13 24 -10 4 4 -7
14 -25 24 l-31 18 0 252 0 252 30 16 c17 9 30 20 30 25 0 13 -2 12 -18 -5z"/>
<path d="M1904 535 c-32 -49 11 -106 69 -92 30 8 50 49 38 81 -17 43 -81 50
-107 11z"/>
<path d="M2042 505 c0 -16 2 -22 5 -12 2 9 2 23 0 30 -3 6 -5 -1 -5 -18z"/>
<path d="M1862 500 c0 -14 2 -19 5 -12 2 6 2 18 0 25 -3 6 -5 1 -5 -13z"/>
<path d="M1898 431 c38 -36 65 -39 107 -11 17 11 26 20 20 20 -5 -1 -19 -7
-29 -15 -28 -22 -54 -18 -95 11 l-36 26 33 -31z"/>
<path d="M665 2040 c-213 -48 -391 -177 -513 -374 -185 -294 -198 -682 -33
-990 83 -156 221 -291 371 -364 152 -73 167 -76 345 -76 157 0 162 1 245 32
47 18 92 37 100 42 8 6 33 19 55 31 161 87 326 308 392 525 23 77 27 110 31
251 3 151 2 170 -23 268 -28 109 -103 274 -155 340 -46 57 -173 176 -224 209
-179 114 -388 152 -591 106z m449 -146 c24 -23 20 -53 -8 -64 -51 -19 -90 16
-66 60 13 24 52 26 74 4z m-525 -13 c38 -38 -6 -91 -56 -68 -42 19 -23 86 25
87 6 0 21 -9 31 -19z m-96 -6 c-3 -9 -8 -14 -10 -11 -3 3 -2 9 2 15 9 16 15
13 8 -4z m654 -22 c-3 -10 -5 -4 -5 12 0 17 2 24 5 18 2 -7 2 -21 0 -30z
m-154 -58 c-15 -13 -31 -25 -35 -25 -3 0 -20 -12 -37 -26 -17 -14 -36 -24 -43
-22 -7 3 0 13 16 24 15 10 43 31 61 47 18 15 38 27 44 27 6 0 9 13 6 33 l-5
32 10 -33 c10 -29 8 -35 -17 -57z m122 15 c-3 -5 -12 -10 -18 -10 -7 0 -6 4 3
10 19 12 23 12 15 0z m-596 -41 c-10 -10 -19 -24 -19 -31 0 -6 -11 -26 -25
-44 -14 -18 -30 -43 -35 -56 -6 -13 -24 -45 -40 -73 -16 -27 -41 -70 -55 -95
-15 -25 -39 -67 -55 -95 -16 -27 -29 -53 -29 -57 -2 -15 30 -8 35 7 4 8 11 15
16 15 6 0 24 12 41 26 22 19 32 23 36 13 2 -7 -1 -15 -6 -16 -6 -2 -32 -19
-59 -38 -36 -26 -51 -32 -61 -23 -7 6 -28 14 -46 18 -29 7 -29 8 -6 9 30 1 49
20 84 82 28 51 66 117 99 174 12 22 31 56 42 75 11 19 32 54 47 77 15 24 27
47 27 52 0 6 6 8 14 5 12 -5 11 -9 -5 -25z m409 -93 c248 -66 401 -375 333
-673 -37 -163 -125 -287 -257 -360 -68 -37 -71 -38 -174 -38 -96 0 -110 2
-160 29 -213 111 -316 332 -282 604 8 61 21 112 37 144 14 27 25 54 25 60 0
12 49 77 95 126 94 101 246 144 383 108z m-675 -398 c17 -26 -7 -68 -37 -68
-44 0 -66 58 -32 83 18 12 58 3 69 -15z m23 -63 c-9 -14 -21 -25 -26 -25 -6 0
-1 9 10 20 11 11 20 25 20 32 0 6 3 8 6 5 4 -4 -1 -18 -10 -32z m-17 -215 c44
-257 48 -290 41 -290 -11 0 -82 416 -79 470 1 27 8 -3 38 -180z m106 -310 c10
-11 16 -20 13 -20 -3 0 -13 9 -23 20 -10 11 -16 20 -13 20 3 0 13 -9 23 -20z
m-18 -20 c18 -27 0 -70 -27 -70 -54 0 -75 36 -43 72 21 24 55 23 70 -2z m128
-64 c73 -15 185 -44 295 -76 36 -10 81 -21 100 -25 19 -4 64 -15 99 -26 64
-19 64 -19 78 1 8 11 18 20 24 20 5 0 0 -9 -11 -20 -11 -11 -20 -24 -20 -29 0
-11 -22 -6 -109 21 -36 12 -99 29 -140 39 -116 27 -199 48 -275 71 -38 11 -86
23 -106 25 -31 4 -37 9 -33 24 5 17 7 17 17 5 6 -8 43 -21 81 -30z m-152 -33
c-7 -2 -19 -2 -25 0 -7 3 -2 5 12 5 14 0 19 -2 13 -5z m848 -90 c13 -16 12
-17 -3 -4 -10 7 -18 15 -18 17 0 8 8 3 21 -13z m-19 -20 c26 -23 22 -50 -9
-67 -54 -27 -105 23 -67 65 21 23 51 24 76 2z m-91 -80 c13 -16 12 -17 -3 -4
-10 7 -18 15 -18 17 0 8 8 3 21 -13z m94 -13 c-3 -5 -12 -10 -18 -10 -7 0 -6
4 3 10 19 12 23 12 15 0z"/>
<path d="M1067 1874 c-8 -8 1 -24 14 -24 5 0 9 7 9 15 0 15 -12 20 -23 9z"/>
<path d="M547 1864 c-8 -8 3 -34 14 -34 5 0 9 9 9 20 0 19 -11 26 -23 14z"/>
<path d="M201 1266 c-12 -14 -5 -26 16 -26 15 0 18 26 4 34 -5 3 -14 0 -20 -8z"/>
<path d="M294 655 c-9 -23 10 -40 25 -22 9 11 8 17 -4 27 -12 10 -16 9 -21 -5z"/>
<path d="M1102 433 c5 -25 28 -28 28 -4 0 12 -6 21 -16 21 -9 0 -14 -7 -12
-17z"/>
<path d="M2420 2044 c-45 -20 -77 -50 -101 -96 -18 -36 -19 -70 -19 -797 l0
-759 33 -47 c50 -72 100 -95 215 -95 79 0 100 4 141 25 56 28 84 62 100 120 7
28 11 264 11 761 0 787 0 792 -57 846 -46 44 -96 58 -197 58 -58 -1 -103 -6
-126 -16z m201 -123 c20 -20 29 -40 29 -61 0 -42 -26 -89 -55 -100 l-25 -10 0
-595 c0 -558 1 -596 18 -602 32 -12 61 -56 62 -96 0 -51 -43 -97 -92 -97 -51
0 -98 47 -98 97 1 39 29 83 63 96 16 6 17 49 17 600 l0 595 -29 12 c-38 15
-65 70 -56 112 17 78 110 105 166 49z"/>
<path d="M2515 1928 c-48 -26 -59 -77 -28 -129 33 -55 110 -46 140 16 16 33
16 37 0 70 -23 48 -70 66 -112 43z m89 -30 c34 -49 5 -118 -49 -118 -54 0 -83
69 -49 118 10 15 25 22 49 22 24 0 39 -7 49 -22z"/>
<path d="M2540 1850 c0 -11 7 -20 15 -20 8 0 15 9 15 20 0 11 -7 20 -15 20 -8
0 -15 -9 -15 -20z"/>
<path d="M2504 523 c-34 -37 -39 -67 -17 -105 35 -60 111 -57 141 5 17 35 9
71 -23 103 -32 32 -70 31 -101 -3z m87 -9 c27 -14 30 -19 27 -57 -2 -32 -9
-44 -29 -56 -37 -20 -75 -8 -88 29 -16 48 7 89 57 99 2 1 17 -6 33 -15z"/>
<path d="M2545 470 c-7 -12 2 -30 16 -30 5 0 9 9 9 20 0 21 -15 27 -25 10z"/>
</g>
</svg>
